<svg xmlns="http://www.w3.org/2000/svg" width="2181.439" height="1469.963" viewBox="0 0 2181.439 1469.963">
  <defs>
    <style>
      .cls-1 {
        fill: #280680;
        opacity: 0.68;
      }
    </style>
  </defs>
  <path id="Path_1" data-name="Path 1" class="cls-1" d="M1302.468,301.977C1162.621,297.1,1029.414,251.64,902.231,201.91S649.042,97.062,512.554,70.708c-87.8-16.943-188.207-19.334-258.942,28.043-68.09,45.537-90.078,124.353-101.893,197.325-8.9,55.023-14.132,112.8,10.232,164.254,16.931,35.727,46.989,65.743,67.781,99.953,72.3,119.059,21.236,265.877-57.182,382.128-36.68,54.53-79.4,106.555-107.762,164.6S23.3,1231.569,48.108,1290.785c24.614,58.7,83.225,102.78,146.72,133.783C323.806,1487.561,475.8,1505.585,624,1515.793c328.074,22.6,657.9,12.807,986.847,3.017,121.739-3.643,244-7.3,363.769-26.26,66.487-10.53,135.137-27.227,183.4-67.565,61.294-51.229,76.487-137.881,35.406-202.069-68.823-107.637-259.309-134.352-307.456-249.939-26.506-63.6.714-134.447,39.228-193.53,82.627-126.535,221.123-237.549,228.42-382.2,5.02-99.346-61.564-198.843-164.5-245.841-107.916-49.331-257.532-43.07-337.147,38.479C1570,273.991,1425.945,306.3,1302.468,301.977Z" transform="translate(-35.001 -59.612)"/>
</svg>
