<svg xmlns="http://www.w3.org/2000/svg" width="842" height="678.376" viewBox="0 0 842 678.376">
  <defs>
    <style>
      .cls-1 {
        fill: #3f3d56;
      }

      .cls-2 {
        fill: #a0616a;
      }

      .cls-3 {
        fill: #2f2e41;
      }

      .cls-4 {
        fill: #d0cde1;
      }

      .cls-5 {
        fill: #f2f2f2;
      }

      .cls-6 {
        fill: #6c63ff;
      }

      .cls-7 {
        opacity: 0.1;
      }
    </style>
  </defs>
  <g id="undraw_business_shop_qw5t" transform="translate(0 0)">
    <ellipse id="Ellipse_12" data-name="Ellipse 12" class="cls-1" cx="416" cy="32.5" rx="416" ry="32.5" transform="translate(10 613.376)"/>
    <path id="Path_40" data-name="Path 40" class="cls-2" d="M779.369,585.5l3.9,28.593-27.293,2.6,3.9-35.091Z"/>
    <path id="Path_41" data-name="Path 41" class="cls-2" d="M829.7,303.812s2.6,35.091,2.6,36.391-18.2,90.977-18.2,90.977-25.993,49.387,0,48.088,18.2-46.788,18.2-46.788L859.594,357.1l-11.7-53.286Z" transform="translate(-179 -110.812)"/>
    <path id="Path_42" data-name="Path 42" class="cls-2" d="M693.591,585.5l-3.9,28.593,27.293,2.6-3.9-35.091Z"/>
    <path id="Path_43" data-name="Path 43" class="cls-3" d="M842.7,428.581l-6.5,9.1s-3.9,38.99,0,51.987,11.7,72.781,11.7,76.68,1.3,6.5,0,7.8-5.2,1.3-2.6,3.9,2.6,10.4,2.6,10.4v6.5l16.9,96.175s-10.4,11.7-2.6,11.7,36.391,0,35.091-13l-2.6-1.3s-3.9-85.778-2.6-89.677,0-11.7,0-11.7-2.6-3.9,0-5.2,2.6-11.7,2.6-11.7l11.7-79.28s10.4,53.286,16.9,58.485,5.2,18.2,5.2,18.2l5.2,114.371s-5.2,13,0,15.6,27.293,11.7,28.593-1.3,7.8-126.068,7.8-131.266-1.3-7.8,0-11.7-1.3-3.9,0-3.9-2.6-3.9-2.6-6.5V479.268s1.3-13,2.6-15.6-1.3-5.2,0-9.1-2.6-16.9-2.6-16.9l-58.485-15.6Z" transform="translate(-179 -110.812)"/>
    <path id="Path_44" data-name="Path 44" class="cls-3" d="M888.187,719.706s6.5-6.5-2.6-6.5a42.3,42.3,0,0,0-16.9,3.9l-6.5,23.394s-26.644,21.444,3.248,18.845,25.344-.65,25.344-.65,9.1-2.6,10.4-5.2-2.6-40.29-2.6-40.29S894.685,723.6,888.187,719.706Z" transform="translate(-179 -110.812)"/>
    <path id="Path_45" data-name="Path 45" class="cls-3" d="M944.072,719.706s-6.5-6.5,2.6-6.5a42.3,42.3,0,0,1,16.9,3.9l6.5,23.394s26.643,21.445-3.249,18.845-29.242-.65-29.242-.65-9.1-2.6-10.4-5.2,6.5-40.29,6.5-40.29S937.574,723.6,944.072,719.706Z" transform="translate(-179 -110.812)"/>
    <circle id="Ellipse_13" data-name="Ellipse 13" class="cls-2" cx="33.791" cy="33.791" r="33.791" transform="translate(646.803 22.744)"/>
    <path id="Path_46" data-name="Path 46" class="cls-2" d="M847.9,192.041s5.2,25.993,5.2,29.892,22.094,15.6,22.094,15.6l24.694-31.192s-15.6-22.094-15.6-27.293Z" transform="translate(-179 -110.812)"/>
    <path id="Path_47" data-name="Path 47" class="cls-4" d="M867.392,225.832s-11.328-3.015-14.761-8.006c0,0-35.926,35.3-35.926,41.8L845.3,310.31s0,18.2,2.6,19.495,0,0,0,5.2-7.8,38.99-5.2,44.189,5.2,1.3,2.6,9.1-9.1,49.387-9.1,49.387,23.394-7.8,57.185,5.2,74.081-5.2,74.081-5.2-10.4-23.394-7.8-31.192-6.5-22.094-6.5-22.094l-6.5-119.569s9.1-53.286,2.6-55.886l-13-5.2-41.62-5.115S884.288,224.533,867.392,225.832Z" transform="translate(-179 -110.812)"/>
    <path id="Path_48" data-name="Path 48" class="cls-4" d="M829.7,250.526l-13,9.1s-6.5,19.495,0,28.593,9.1,22.094,9.1,22.094l25.993-2.6Z" transform="translate(-179 -110.812)"/>
    <path id="Path_49" data-name="Path 49" class="cls-3" d="M833.794,131.636l-5.862-2.347s12.256-13.493,29.308-12.32l-4.8-5.28s11.723-4.693,22.38,7.626c5.6,6.476,12.084,14.089,16.125,22.664h6.277l-2.62,5.769,9.17,5.769-9.412-1.036a31.921,31.921,0,0,1-.89,14.94l.252,4.56s-10.91-16.879-10.91-19.226v5.867s-5.862-5.28-5.862-8.8l-3.2,4.107-1.6-6.453-19.716,6.453,3.2-5.28-12.256,1.76,4.8-6.453s-13.854,7.626-14.387,14.08-7.46,14.666-7.46,14.666l-3.2-5.867S818.341,140.435,833.794,131.636Z" transform="translate(-179 -110.812)"/>
    <rect id="Rectangle_22" data-name="Rectangle 22" class="cls-5" width="516.463" height="362.798" transform="translate(146.169 282.832)"/>
    <rect id="Rectangle_23" data-name="Rectangle 23" class="cls-1" width="129.678" height="226.374" transform="translate(189.645 421.256)"/>
    <rect id="Rectangle_24" data-name="Rectangle 24" class="cls-5" width="34.932" height="32.563" transform="translate(213.632 434.837)"/>
    <rect id="Rectangle_25" data-name="Rectangle 25" class="cls-5" width="34.932" height="32.563" transform="translate(260.405 434.837)"/>
    <rect id="Rectangle_26" data-name="Rectangle 26" class="cls-5" width="34.932" height="33.748" transform="translate(213.632 479.241)"/>
    <rect id="Rectangle_27" data-name="Rectangle 27" class="cls-5" width="34.932" height="33.748" transform="translate(260.405 479.241)"/>
    <circle id="Ellipse_14" data-name="Ellipse 14" class="cls-6" cx="8.245" cy="8.245" r="8.245" transform="translate(294.587 541.439)"/>
    <rect id="Rectangle_28" data-name="Rectangle 28" class="cls-1" width="256.357" height="215.13" transform="translate(362.799 399.767)"/>
    <path id="Path_50" data-name="Path 50" class="cls-1" d="M716.6,351.134H92.2l41.632-87.042,9.317-19.489,12.189-25.486,9.317-19.489,10.8-22.577H667.407l6.379,22.577,5.509,19.489,7.2,25.486,5.509,19.489Z"/>
    <rect id="Rectangle_29" data-name="Rectangle 29" class="cls-6" width="8.995" height="55.469" transform="translate(371.794 488.967)"/>
    <rect id="Rectangle_30" data-name="Rectangle 30" class="cls-5" width="8.995" height="6.746" transform="translate(371.794 497.213)"/>
    <rect id="Rectangle_31" data-name="Rectangle 31" class="cls-5" width="8.995" height="6.746" transform="translate(371.794 529.445)"/>
    <rect id="Rectangle_32" data-name="Rectangle 32" class="cls-6" width="21.738" height="55.469" transform="translate(385.286 488.967)"/>
    <rect id="Rectangle_33" data-name="Rectangle 33" class="cls-5" width="21.738" height="6.746" transform="translate(385.286 497.213)"/>
    <rect id="Rectangle_34" data-name="Rectangle 34" class="cls-5" width="21.738" height="6.746" transform="translate(385.286 529.445)"/>
    <rect id="Rectangle_35" data-name="Rectangle 35" class="cls-6" width="8.995" height="55.469" transform="translate(412.271 488.967)"/>
    <rect id="Rectangle_36" data-name="Rectangle 36" class="cls-5" width="8.995" height="6.746" transform="translate(412.271 497.213)"/>
    <rect id="Rectangle_37" data-name="Rectangle 37" class="cls-5" width="8.995" height="6.746" transform="translate(412.271 529.445)"/>
    <rect id="Rectangle_38" data-name="Rectangle 38" class="cls-6" width="8.995" height="55.469" transform="translate(425.764 488.967)"/>
    <rect id="Rectangle_39" data-name="Rectangle 39" class="cls-5" width="8.995" height="6.746" transform="translate(425.764 497.213)"/>
    <rect id="Rectangle_40" data-name="Rectangle 40" class="cls-5" width="8.995" height="6.746" transform="translate(425.764 529.445)"/>
    <rect id="Rectangle_41" data-name="Rectangle 41" class="cls-6" width="8.995" height="55.469" transform="translate(435.014 492.335) rotate(-20.654)"/>
    <rect id="Rectangle_42" data-name="Rectangle 42" class="cls-5" width="8.995" height="6.746" transform="translate(437.923 500.05) rotate(-20.654)"/>
    <rect id="Rectangle_43" data-name="Rectangle 43" class="cls-5" width="8.995" height="6.746" transform="translate(449.292 530.211) rotate(-20.654)"/>
    <rect id="Rectangle_44" data-name="Rectangle 44" class="cls-6" width="21.738" height="55.469" transform="translate(589.173 488.967)"/>
    <rect id="Rectangle_45" data-name="Rectangle 45" class="cls-5" width="21.738" height="6.746" transform="translate(589.173 497.213)"/>
    <rect id="Rectangle_46" data-name="Rectangle 46" class="cls-5" width="21.738" height="6.746" transform="translate(589.173 529.445)"/>
    <rect id="Rectangle_47" data-name="Rectangle 47" class="cls-6" width="8.995" height="55.469" transform="translate(574.931 488.967)"/>
    <rect id="Rectangle_48" data-name="Rectangle 48" class="cls-5" width="8.995" height="6.746" transform="translate(574.931 497.213)"/>
    <rect id="Rectangle_49" data-name="Rectangle 49" class="cls-5" width="8.995" height="6.746" transform="translate(574.931 529.445)"/>
    <rect id="Rectangle_50" data-name="Rectangle 50" class="cls-6" width="8.995" height="55.469" transform="translate(561.438 488.967)"/>
    <rect id="Rectangle_51" data-name="Rectangle 51" class="cls-5" width="8.995" height="6.746" transform="translate(561.438 497.213)"/>
    <rect id="Rectangle_52" data-name="Rectangle 52" class="cls-5" width="8.995" height="6.746" transform="translate(561.438 529.445)"/>
    <rect id="Rectangle_53" data-name="Rectangle 53" class="cls-6" width="55.469" height="8.995" transform="translate(533.21 541.068) rotate(-69.346)"/>
    <rect id="Rectangle_54" data-name="Rectangle 54" class="cls-5" width="6.746" height="8.995" transform="translate(547.488 503.192) rotate(-69.346)"/>
    <rect id="Rectangle_55" data-name="Rectangle 55" class="cls-5" width="6.746" height="8.995" transform="translate(536.118 533.353) rotate(-69.346)"/>
    <rect id="Rectangle_56" data-name="Rectangle 56" class="cls-5" width="256.357" height="5.247" transform="translate(362.799 544.437)"/>
    <rect id="Rectangle_57" data-name="Rectangle 57" class="cls-6" width="47.224" height="55.469" transform="translate(474.487 488.967)"/>
    <rect id="Rectangle_58" data-name="Rectangle 58" class="cls-5" width="23.987" height="10.494" transform="translate(486.105 500.961)"/>
    <rect id="Rectangle_59" data-name="Rectangle 59" class="cls-5" width="4.497" height="47.973" transform="translate(488.729 399.767)"/>
    <circle id="Ellipse_15" data-name="Ellipse 15" class="cls-5" cx="7.496" cy="7.496" r="7.496" transform="translate(483.481 440.244)"/>
    <path id="Path_51" data-name="Path 51" class="cls-6" d="M679.295,219.117H155.337l9.317-19.489H673.786Z"/>
    <path id="Path_52" data-name="Path 52" class="cls-6" d="M692.008,264.092H133.831l9.317-19.489H686.5Z"/>
    <path id="Path_53" data-name="Path 53" class="cls-2" d="M925.877,262.223s-7.526,19.353-5.954,38.5a20.293,20.293,0,0,0,3.355,9.587h0l-92.2,43.774s-41.662,4.313-31.264,22.509,48.088-9.1,48.088-9.1,98.775-14.3,106.573-28.593,13-74.081,13-74.081Z" transform="translate(-179 -110.812)"/>
    <path id="Path_54" data-name="Path 54" class="cls-4" d="M929.776,208.937h19.495s14.3,2.6,18.2,28.593,7.8,32.492,3.9,32.492-50.687-1.3-50.687-2.6S929.776,208.937,929.776,208.937Z" transform="translate(-179 -110.812)"/>
    <g id="Group_19" data-name="Group 19">
      <g id="Group_17" data-name="Group 17">
        <circle id="Ellipse_16" data-name="Ellipse 16" class="cls-6" cx="100" cy="100" r="100" transform="translate(0 286.376)"/>
      </g>
      <g id="Group_18" data-name="Group 18">
        <circle id="Ellipse_17" data-name="Ellipse 17" class="cls-7" cx="86" cy="86" r="86" transform="translate(14 300.376)"/>
        <path id="Path_55" data-name="Path 55" class="cls-5" d="M274.879,547.936V535.419c-6.327-.123-12.873-2.355-16.691-5.453l2.618-8.3a26.681,26.681,0,0,0,15.709,5.328c7.746,0,12.982-5.081,12.982-12.145,0-6.816-4.255-11.03-12.328-14.748-11.128-4.957-18-10.658-18-21.44,0-10.287,6.437-18.094,16.473-19.953V446.188h6.764v12.021a26.543,26.543,0,0,1,14.182,4.337l-2.728,8.18a24.107,24.107,0,0,0-13.746-4.214c-8.4,0-11.564,5.7-11.564,10.658,0,6.444,4.036,9.666,13.528,14.128,11.236,5.205,16.91,11.649,16.91,22.679,0,9.79-6,18.962-17.237,21.068v12.89Z" transform="translate(-179 -110.812)"/>
      </g>
    </g>
  </g>
</svg>
